<mxfile host="app.diagrams.net" modified="2022-11-27T15:40:31.396Z" agent="5.0 (Macintosh; Intel Mac OS X 10_15_7) AppleWebKit/605.1.15 (KHTML, like Gecko) Version/16.1 Safari/605.1.15" etag="ZWX1_l_qfa7KzEPPX96K" version="20.6.0" type="github">
  <diagram id="vQhc-LN_o8leNg1Mxk0Y" name="Seite-1">
    <mxGraphModel dx="2066" dy="1014" grid="1" gridSize="10" guides="1" tooltips="1" connect="1" arrows="1" fold="1" page="1" pageScale="1" pageWidth="827" pageHeight="1169" math="0" shadow="0">
      <root>
        <mxCell id="0" />
        <mxCell id="1" parent="0" />
        <mxCell id="opA1cYsUA3QZYckgHqJ2-53" value="S&lt;sub style=&quot;font-size: 12px;&quot;&gt;1 , L&lt;/sub&gt;" style="rounded=0;whiteSpace=wrap;html=1;fontSize=12;fontFamily=Times New Roman;" parent="1" vertex="1">
          <mxGeometry x="20" y="80" width="40" height="20" as="geometry" />
        </mxCell>
        <mxCell id="opA1cYsUA3QZYckgHqJ2-54" value="S&lt;sub style=&quot;font-size: 12px;&quot;&gt;1 , R&lt;/sub&gt;" style="rounded=0;whiteSpace=wrap;html=1;fontSize=12;fontFamily=Times New Roman;" parent="1" vertex="1">
          <mxGeometry x="20" y="110" width="40" height="20" as="geometry" />
        </mxCell>
        <mxCell id="opA1cYsUA3QZYckgHqJ2-55" value="S&lt;sub style=&quot;font-size: 12px;&quot;&gt;2 , L&lt;/sub&gt;" style="rounded=0;whiteSpace=wrap;html=1;fontSize=12;fontFamily=Times New Roman;" parent="1" vertex="1">
          <mxGeometry x="88" y="50" width="40" height="20" as="geometry" />
        </mxCell>
        <mxCell id="opA1cYsUA3QZYckgHqJ2-56" value="S&lt;sub style=&quot;font-size: 12px;&quot;&gt;2&amp;nbsp;, R&lt;/sub&gt;" style="rounded=0;whiteSpace=wrap;html=1;fontSize=12;fontFamily=Times New Roman;" parent="1" vertex="1">
          <mxGeometry x="88" y="80" width="40" height="20" as="geometry" />
        </mxCell>
        <mxCell id="opA1cYsUA3QZYckgHqJ2-57" value="S&lt;sub style=&quot;font-size: 12px;&quot;&gt;3&amp;nbsp;, L&lt;/sub&gt;" style="rounded=0;whiteSpace=wrap;html=1;fontSize=12;fontFamily=Times New Roman;" parent="1" vertex="1">
          <mxGeometry x="88" y="110" width="40" height="20" as="geometry" />
        </mxCell>
        <mxCell id="opA1cYsUA3QZYckgHqJ2-58" value="S&lt;sub style=&quot;font-size: 12px;&quot;&gt;3&amp;nbsp;, R&lt;/sub&gt;" style="rounded=0;whiteSpace=wrap;html=1;fontSize=12;fontFamily=Times New Roman;" parent="1" vertex="1">
          <mxGeometry x="88" y="140" width="40" height="20" as="geometry" />
        </mxCell>
        <mxCell id="opA1cYsUA3QZYckgHqJ2-59" value="1" style="whiteSpace=wrap;html=1;aspect=fixed;fontSize=12;fontFamily=Times New Roman;" parent="1" vertex="1">
          <mxGeometry x="60" y="80" width="20" height="20" as="geometry" />
        </mxCell>
        <mxCell id="opA1cYsUA3QZYckgHqJ2-60" value="3" style="whiteSpace=wrap;html=1;aspect=fixed;fontSize=12;fontFamily=Times New Roman;" parent="1" vertex="1">
          <mxGeometry x="60" y="110" width="20" height="20" as="geometry" />
        </mxCell>
        <mxCell id="opA1cYsUA3QZYckgHqJ2-61" value="0" style="whiteSpace=wrap;html=1;aspect=fixed;fontSize=12;fontFamily=Times New Roman;" parent="1" vertex="1">
          <mxGeometry x="128" y="50" width="20" height="20" as="geometry" />
        </mxCell>
        <mxCell id="opA1cYsUA3QZYckgHqJ2-62" value="1" style="whiteSpace=wrap;html=1;aspect=fixed;fontSize=12;fontFamily=Times New Roman;" parent="1" vertex="1">
          <mxGeometry x="128" y="80" width="20" height="20" as="geometry" />
        </mxCell>
        <mxCell id="opA1cYsUA3QZYckgHqJ2-63" value="3" style="whiteSpace=wrap;html=1;aspect=fixed;fontSize=12;fontFamily=Times New Roman;" parent="1" vertex="1">
          <mxGeometry x="128" y="110" width="20" height="20" as="geometry" />
        </mxCell>
        <mxCell id="opA1cYsUA3QZYckgHqJ2-64" value="2" style="whiteSpace=wrap;html=1;aspect=fixed;fontSize=12;fontFamily=Times New Roman;" parent="1" vertex="1">
          <mxGeometry x="128" y="140" width="20" height="20" as="geometry" />
        </mxCell>
        <mxCell id="opA1cYsUA3QZYckgHqJ2-65" value="&lt;font style=&quot;font-size: 15px;&quot;&gt;Model-Free&lt;/font&gt;" style="text;strokeColor=none;fillColor=none;html=1;fontSize=15;fontStyle=1;verticalAlign=middle;align=center;fontFamily=Times New Roman;" parent="1" vertex="1">
          <mxGeometry x="39" y="166" width="100" height="40" as="geometry" />
        </mxCell>
        <mxCell id="opA1cYsUA3QZYckgHqJ2-66" value="&lt;font style=&quot;font-size: 15px;&quot;&gt;Model-Based&lt;/font&gt;" style="text;strokeColor=none;fillColor=none;html=1;fontSize=15;fontStyle=1;verticalAlign=middle;align=center;fontFamily=Times New Roman;" parent="1" vertex="1">
          <mxGeometry x="270" y="166" width="100" height="40" as="geometry" />
        </mxCell>
        <mxCell id="JH3MhuxvR2pmWHtQqcPl-2" value="&lt;font style=&quot;font-size: 12px;&quot;&gt;S&lt;/font&gt;&lt;sub style=&quot;font-size: 12px;&quot;&gt;&lt;font style=&quot;font-size: 12px;&quot;&gt;1&lt;/font&gt;&lt;br style=&quot;font-size: 12px;&quot;&gt;&lt;/sub&gt;" style="text;html=1;strokeColor=none;fillColor=none;align=center;verticalAlign=middle;whiteSpace=wrap;rounded=0;fontSize=12;fontFamily=Times New Roman;" parent="1" vertex="1">
          <mxGeometry x="210" y="97" width="30" height="20" as="geometry" />
        </mxCell>
        <mxCell id="JH3MhuxvR2pmWHtQqcPl-3" value="&lt;span style=&quot;font-size: 12px;&quot;&gt;S&lt;sub style=&quot;font-size: 12px;&quot;&gt;2&lt;/sub&gt;&lt;/span&gt;" style="text;html=1;strokeColor=none;fillColor=none;align=center;verticalAlign=middle;whiteSpace=wrap;rounded=0;fontSize=12;fontFamily=Times New Roman;" parent="1" vertex="1">
          <mxGeometry x="305" y="57" width="30" height="20" as="geometry" />
        </mxCell>
        <mxCell id="JH3MhuxvR2pmWHtQqcPl-6" value="" style="endArrow=classic;html=1;rounded=0;fontSize=12;exitX=1;exitY=0.5;exitDx=0;exitDy=0;entryX=0;entryY=0.5;entryDx=0;entryDy=0;fontFamily=Times New Roman;" parent="1" source="JH3MhuxvR2pmWHtQqcPl-2" target="JH3MhuxvR2pmWHtQqcPl-3" edge="1">
          <mxGeometry width="50" height="50" relative="1" as="geometry">
            <mxPoint x="290" y="267" as="sourcePoint" />
            <mxPoint x="340" y="217" as="targetPoint" />
          </mxGeometry>
        </mxCell>
        <mxCell id="JH3MhuxvR2pmWHtQqcPl-7" value="" style="endArrow=classic;html=1;rounded=0;fontSize=12;exitX=1;exitY=0.5;exitDx=0;exitDy=0;entryX=0;entryY=0.5;entryDx=0;entryDy=0;fontFamily=Times New Roman;" parent="1" source="JH3MhuxvR2pmWHtQqcPl-2" target="JH3MhuxvR2pmWHtQqcPl-8" edge="1">
          <mxGeometry width="50" height="50" relative="1" as="geometry">
            <mxPoint x="290" y="267" as="sourcePoint" />
            <mxPoint x="340" y="217" as="targetPoint" />
          </mxGeometry>
        </mxCell>
        <mxCell id="JH3MhuxvR2pmWHtQqcPl-8" value="&lt;span style=&quot;font-size: 12px;&quot;&gt;S&lt;sub style=&quot;font-size: 12px;&quot;&gt;3&lt;/sub&gt;&lt;/span&gt;" style="text;html=1;strokeColor=none;fillColor=none;align=center;verticalAlign=middle;whiteSpace=wrap;rounded=0;fontSize=12;fontFamily=Times New Roman;" parent="1" vertex="1">
          <mxGeometry x="305" y="127" width="30" height="20" as="geometry" />
        </mxCell>
        <mxCell id="JH3MhuxvR2pmWHtQqcPl-9" value="" style="endArrow=classic;html=1;rounded=0;fontSize=12;exitX=1;exitY=0.5;exitDx=0;exitDy=0;entryX=0;entryY=0.5;entryDx=0;entryDy=0;fontFamily=Times New Roman;" parent="1" edge="1">
          <mxGeometry width="50" height="50" relative="1" as="geometry">
            <mxPoint x="335" y="67" as="sourcePoint" />
            <mxPoint x="400" y="37" as="targetPoint" />
          </mxGeometry>
        </mxCell>
        <mxCell id="JH3MhuxvR2pmWHtQqcPl-10" value="" style="endArrow=classic;html=1;rounded=0;fontSize=12;exitX=1;exitY=0.5;exitDx=0;exitDy=0;entryX=0;entryY=0.5;entryDx=0;entryDy=0;fontFamily=Times New Roman;" parent="1" edge="1">
          <mxGeometry width="50" height="50" relative="1" as="geometry">
            <mxPoint x="335" y="67" as="sourcePoint" />
            <mxPoint x="400" y="87" as="targetPoint" />
          </mxGeometry>
        </mxCell>
        <mxCell id="JH3MhuxvR2pmWHtQqcPl-11" value="" style="endArrow=classic;html=1;rounded=0;fontSize=12;exitX=1;exitY=0.5;exitDx=0;exitDy=0;entryX=0;entryY=0.5;entryDx=0;entryDy=0;fontFamily=Times New Roman;" parent="1" edge="1">
          <mxGeometry width="50" height="50" relative="1" as="geometry">
            <mxPoint x="335" y="137" as="sourcePoint" />
            <mxPoint x="400" y="107" as="targetPoint" />
          </mxGeometry>
        </mxCell>
        <mxCell id="JH3MhuxvR2pmWHtQqcPl-12" value="" style="endArrow=classic;html=1;rounded=0;fontSize=12;exitX=1;exitY=0.5;exitDx=0;exitDy=0;entryX=0;entryY=0.5;entryDx=0;entryDy=0;fontFamily=Times New Roman;" parent="1" edge="1">
          <mxGeometry width="50" height="50" relative="1" as="geometry">
            <mxPoint x="335" y="136" as="sourcePoint" />
            <mxPoint x="400" y="156" as="targetPoint" />
          </mxGeometry>
        </mxCell>
        <mxCell id="JH3MhuxvR2pmWHtQqcPl-13" value="0&lt;br style=&quot;font-size: 12px;&quot;&gt;&lt;br style=&quot;font-size: 12px;&quot;&gt;&lt;br style=&quot;font-size: 12px;&quot;&gt;1&lt;br style=&quot;font-size: 12px;&quot;&gt;&lt;br style=&quot;font-size: 12px;&quot;&gt;3&lt;br style=&quot;font-size: 12px;&quot;&gt;&lt;br style=&quot;font-size: 12px;&quot;&gt;&lt;br style=&quot;font-size: 12px;&quot;&gt;2&lt;br style=&quot;font-size: 12px;&quot;&gt;" style="rounded=0;whiteSpace=wrap;html=1;fontSize=12;fontFamily=Times New Roman;" parent="1" vertex="1">
          <mxGeometry x="410" y="27" width="30" height="140" as="geometry" />
        </mxCell>
      </root>
    </mxGraphModel>
  </diagram>
</mxfile>
